<svg width="167" height="50" viewBox="0 0 167 50" fill="none" xmlns="http://www.w3.org/2000/svg">
<path d="M165.561 43.5528C165.561 44.808 165.062 46.0118 164.174 46.8989C163.285 47.786 162.081 48.2838 160.825 48.2825H5.84143C3.22567 48.2852 1.10277 46.1678 1.09937 43.5528V5.83499C1.10277 3.21893 3.22467 1.0998 5.84143 1.09912H160.824C162.08 1.09912 163.285 1.59812 164.173 2.4863C165.061 3.37448 165.561 4.57907 165.561 5.83499V43.5528Z" fill="white"/>
<path d="M160.825 49.3827H5.84142C2.61943 49.382 0.00613057 46.7738 0 43.5527V5.83617C0.00476642 2.61347 2.61787 0.00272008 5.84142 0H160.824C164.047 0.00407715 166.659 2.61404 166.665 5.83617V43.5527C166.668 46.7684 164.043 49.3827 160.825 49.3827Z" fill="#A6A6A6"/>
<path d="M165.561 43.5528C165.561 44.808 165.062 46.0118 164.174 46.8989C163.285 47.786 162.081 48.2838 160.825 48.2825H5.84143C3.22567 48.2852 1.10277 46.1678 1.09937 43.5528V5.83499C1.10277 3.21893 3.22467 1.0998 5.84143 1.09912H160.824C162.08 1.09912 163.285 1.59812 164.173 2.4863C165.061 3.37448 165.561 4.57907 165.561 5.83499V43.5528Z" fill="black"/>
<path d="M37.2152 24.4314C37.1794 20.4512 40.475 18.5149 40.6257 18.4248C38.7592 15.7043 35.8663 15.3326 34.8497 15.3029C32.42 15.0473 30.0632 16.7564 28.8255 16.7564C27.563 16.7564 25.6571 15.3276 23.6029 15.3696C20.9595 15.4104 18.4865 16.9404 17.1303 19.3164C14.3312 24.1609 16.4188 31.2802 19.1005 35.196C20.4419 37.1151 22.0094 39.2552 24.0612 39.1799C26.0684 39.0984 26.8182 37.9017 29.2405 37.9017C31.6406 37.9017 32.3446 39.1799 34.4371 39.1317C36.5914 39.0984 37.9477 37.2052 39.2422 35.2701C40.7924 33.0732 41.415 30.9072 41.4397 30.7961C41.3903 30.7788 37.2572 29.2006 37.2152 24.4314ZM33.2624 12.7269C34.342 11.3772 35.0807 9.54084 34.8756 7.67737C33.3131 7.74652 31.3589 8.75791 30.2336 10.078C29.238 11.2413 28.3487 13.148 28.5784 14.9411C30.3337 15.072 32.1359 14.0557 33.2624 12.7269Z" fill="white"/>
<path d="M66.2889 38.9045H63.4837L61.947 34.0772H56.6059L55.1421 38.9045H52.411L57.704 22.4703H60.9724L66.2889 38.9045ZM61.4838 32.052L60.0942 27.7607C59.9472 27.3223 59.6705 26.2899 59.2653 24.6648H59.2159C59.0529 25.3637 58.7922 26.3961 58.4352 27.7607L57.0691 32.052H61.4838ZM79.874 32.8337C79.874 34.849 79.3268 36.4421 78.2311 37.6115C77.2503 38.6526 76.0312 39.1724 74.5773 39.1724C73.0073 39.1724 71.8783 38.613 71.1928 37.4917V43.7095H68.5592V30.9492C68.5592 29.6834 68.5259 28.3855 68.4616 27.0543H70.7777L70.9247 28.9326H70.9741C71.8524 27.5174 73.1852 26.8098 74.9738 26.8098C76.3721 26.8098 77.5394 27.3618 78.4732 28.467C79.4058 29.5748 79.874 31.0295 79.874 32.8337ZM77.1911 32.93C77.1911 31.7766 76.9317 30.8257 76.4104 30.0761C75.8409 29.2969 75.0763 28.9067 74.1178 28.9067C73.4681 28.9067 72.8776 29.124 72.3502 29.5525C71.8215 29.9847 71.4756 30.5491 71.3138 31.248C71.2416 31.5094 71.2005 31.7785 71.1915 32.0495V34.0266C71.1915 34.8873 71.4559 35.6147 71.9845 36.2099C72.5132 36.8027 73.2 37.1003 74.0449 37.1003C75.0368 37.1003 75.8088 36.7162 76.361 35.9543C76.9144 35.1899 77.1911 34.1822 77.1911 32.93ZM93.5073 32.8337C93.5073 34.849 92.9601 36.4421 91.8644 37.6115C90.8824 38.6526 89.6644 39.1724 88.2093 39.1724C86.6394 39.1724 85.5104 38.613 84.8248 37.4917V43.7095H82.1913V30.9492C82.1913 29.6834 82.1579 28.3855 82.0937 27.0543H84.4098L84.5568 28.9326H84.6062C85.4832 27.5174 86.816 26.8098 88.6059 26.8098C90.0029 26.8098 91.1702 27.3618 92.1065 28.467C93.0379 29.5748 93.5073 31.0295 93.5073 32.8337ZM90.8231 32.93C90.8231 31.7766 90.5625 30.8257 90.0412 30.0761C89.4718 29.2969 88.7096 28.9067 87.7511 28.9067C87.1013 28.9067 86.5109 29.124 85.981 29.5525C85.4523 29.9847 85.1077 30.5491 84.9459 31.248C84.8656 31.5741 84.8223 31.8396 84.8223 32.0495V34.0266C84.8223 34.8873 85.0879 35.6147 85.6141 36.2099C86.1428 36.8014 86.8296 37.1003 87.677 37.1003C88.6701 37.1003 89.4421 36.7162 89.993 35.9543C90.5464 35.1899 90.8231 34.1822 90.8231 32.93ZM108.75 34.2946C108.75 35.6937 108.261 36.8311 107.289 37.7091C106.219 38.6674 104.726 39.1478 102.811 39.1478C101.042 39.1478 99.6241 38.8069 98.5544 38.124L99.1634 35.9296C100.318 36.6137 101.587 36.9546 102.968 36.9546C103.961 36.9546 104.733 36.7298 105.284 36.284C105.836 35.837 106.115 35.2393 106.115 34.4934C106.115 33.8253 105.884 33.2659 105.431 32.8102C104.975 32.3558 104.222 31.9322 103.163 31.5432C100.285 30.4701 98.8447 28.9005 98.8447 26.8357C98.8447 25.4872 99.3536 24.3832 100.369 23.52C101.384 22.658 102.731 22.2271 104.406 22.2271C105.902 22.2271 107.148 22.4876 108.137 23.0075L107.477 25.1538C106.545 24.6499 105.494 24.398 104.318 24.398C103.389 24.398 102.66 24.6265 102.139 25.0809C101.701 25.4872 101.478 25.9824 101.478 26.5702C101.478 27.2185 101.731 27.757 102.235 28.1793C102.673 28.5683 103.471 28.9919 104.624 29.4463C106.04 30.0168 107.08 30.6812 107.746 31.4444C108.417 32.2076 108.75 33.1597 108.75 34.2946ZM117.479 29.0302H114.577V34.7836C114.577 36.247 115.088 36.9768 116.113 36.9768C116.584 36.9768 116.974 36.9373 117.283 36.8545L117.356 38.8538C116.837 39.0477 116.154 39.1453 115.308 39.1453C114.268 39.1453 113.455 38.8279 112.868 38.1932C112.284 37.5584 111.99 36.4952 111.99 34.9985V29.0252H110.261V27.0494H111.99V24.8796L114.577 24.0992V27.0494H117.479V29.0302ZM130.551 32.8818C130.551 34.7033 130.029 36.1988 128.989 37.3683C127.901 38.5723 126.453 39.1724 124.649 39.1724C122.907 39.1724 121.522 38.5957 120.49 37.4436C119.457 36.2889 118.941 34.8342 118.941 33.0794C118.941 31.2431 119.474 29.739 120.538 28.5695C121.604 27.3988 123.039 26.8135 124.844 26.8135C126.583 26.8135 127.98 27.3914 129.038 28.5448C130.048 29.6637 130.551 31.1085 130.551 32.8818ZM127.821 32.9423C127.821 31.8569 127.586 30.9257 127.116 30.1465C126.563 29.2055 125.773 28.735 124.749 28.735C123.694 28.735 122.885 29.2055 122.334 30.1465C121.862 30.9257 121.627 31.8729 121.627 32.9917C121.627 34.0785 121.862 35.012 122.334 35.7888C122.903 36.7298 123.698 37.2003 124.727 37.2003C125.733 37.2003 126.523 36.7199 127.093 35.7653C127.578 34.9676 127.821 34.0303 127.821 32.9423ZM139.115 29.3698C138.841 29.3203 138.563 29.2959 138.285 29.2969C137.358 29.2969 136.642 29.6451 136.138 30.3466C135.7 30.964 135.481 31.7445 135.481 32.6867V38.9045H132.847V30.7862C132.849 29.5422 132.824 28.2984 132.77 27.0555H135.064L135.161 29.3228H135.233C135.513 28.5436 135.95 27.915 136.55 27.4445C137.1 27.0334 137.767 26.8108 138.454 26.8098C138.697 26.8098 138.917 26.8271 139.112 26.858L139.115 29.3698ZM150.893 32.4187C150.899 32.819 150.867 33.2189 150.796 33.6129H142.896C142.925 34.7836 143.308 35.6801 144.042 36.2976C144.708 36.8484 145.569 37.125 146.626 37.125C147.796 37.125 148.863 36.9397 149.823 36.5656L150.235 38.392C149.114 38.881 147.79 39.1243 146.262 39.1243C144.424 39.1243 142.981 38.5834 141.931 37.5041C140.883 36.4235 140.358 34.9713 140.358 33.1523C140.358 31.3666 140.846 29.8785 141.823 28.6918C142.846 27.4248 144.228 26.7913 145.968 26.7913C147.676 26.7913 148.969 27.4248 149.848 28.6918C150.543 29.6958 150.893 30.9406 150.893 32.4187ZM148.381 31.7358C148.4 30.9541 148.227 30.2811 147.87 29.7118C147.414 28.9783 146.713 28.6128 145.773 28.6128C144.912 28.6128 144.21 28.9696 143.676 29.6859C143.238 30.2552 142.977 30.9393 142.897 31.7334L148.381 31.7358Z" fill="white"/>
<path d="M56.6029 7.18746V16.6666H55.3659V7.18746H56.6029ZM59.6498 7.18746V8.21611H52.3256V7.18746H59.6498Z" fill="white"/>
<path d="M63.1459 16.7968C62.6554 16.7968 62.2105 16.7144 61.8112 16.5494C61.4163 16.3802 61.0756 16.1436 60.7891 15.8398C60.507 15.536 60.29 15.1757 60.1381 14.7591C59.9862 14.3424 59.9102 13.8867 59.9102 13.3919V13.1184C59.9102 12.5455 59.9948 12.0355 60.1641 11.5885C60.3334 11.1371 60.5634 10.7552 60.8542 10.4427C61.145 10.1302 61.4749 9.89362 61.8438 9.73303C62.2127 9.57244 62.5947 9.49215 62.9896 9.49215C63.4931 9.49215 63.9271 9.57895 64.2917 9.75256C64.6606 9.92617 64.9623 10.1692 65.1967 10.4817C65.431 10.7899 65.6046 11.1545 65.7175 11.5755C65.8303 11.9921 65.8868 12.4479 65.8868 12.9427V13.483H60.6263V12.5H64.6823V12.4088C64.665 12.0963 64.5999 11.7925 64.487 11.4974C64.3785 11.2022 64.2049 10.9592 63.9662 10.7682C63.7275 10.5772 63.402 10.4817 62.9896 10.4817C62.7162 10.4817 62.4645 10.5403 62.2344 10.6575C62.0044 10.7704 61.8069 10.9396 61.642 11.1653C61.477 11.391 61.349 11.6666 61.2579 11.9921C61.1667 12.3177 61.1211 12.6931 61.1211 13.1184V13.3919C61.1211 13.7261 61.1667 14.0408 61.2579 14.3359C61.3533 14.6267 61.4901 14.8828 61.668 15.1041C61.8503 15.3255 62.0695 15.4991 62.3256 15.625C62.586 15.7508 62.8811 15.8138 63.211 15.8138C63.6363 15.8138 63.9966 15.727 64.2917 15.5533C64.5868 15.3797 64.8451 15.1475 65.0664 14.8567L65.7956 15.4362C65.6437 15.6662 65.4506 15.8854 65.2162 16.0937C64.9818 16.302 64.6932 16.4713 64.3503 16.6015C64.0118 16.7317 63.6103 16.7968 63.1459 16.7968ZM62.3191 8.58069L63.5821 6.66663H65.0339L63.2891 8.58069H62.3191Z" fill="white"/>
<path d="M68.6016 6.66663V16.6666H67.3907V6.66663H68.6016Z" fill="white"/>
<path d="M73.4584 16.7968C72.9679 16.7968 72.523 16.7144 72.1237 16.5494C71.7288 16.3802 71.3881 16.1436 71.1016 15.8398C70.8195 15.536 70.6025 15.1757 70.4506 14.7591C70.2987 14.3424 70.2227 13.8867 70.2227 13.3919V13.1184C70.2227 12.5455 70.3073 12.0355 70.4766 11.5885C70.6459 11.1371 70.8759 10.7552 71.1667 10.4427C71.4575 10.1302 71.7874 9.89362 72.1563 9.73303C72.5252 9.57244 72.9072 9.49215 73.3021 9.49215C73.8056 9.49215 74.2396 9.57895 74.6042 9.75256C74.9731 9.92617 75.2748 10.1692 75.5092 10.4817C75.7435 10.7899 75.9171 11.1545 76.03 11.5755C76.1428 11.9921 76.1993 12.4479 76.1993 12.9427V13.483H70.9388V12.5H74.9948V12.4088C74.9775 12.0963 74.9124 11.7925 74.7995 11.4974C74.691 11.2022 74.5174 10.9592 74.2787 10.7682C74.04 10.5772 73.7145 10.4817 73.3021 10.4817C73.0287 10.4817 72.7769 10.5403 72.5469 10.6575C72.3169 10.7704 72.1194 10.9396 71.9545 11.1653C71.7895 11.391 71.6615 11.6666 71.5704 11.9921C71.4792 12.3177 71.4336 12.6931 71.4336 13.1184V13.3919C71.4336 13.7261 71.4792 14.0408 71.5704 14.3359C71.6658 14.6267 71.8026 14.8828 71.9805 15.1041C72.1628 15.3255 72.382 15.4991 72.6381 15.625C72.8985 15.7508 73.1936 15.8138 73.5235 15.8138C73.9488 15.8138 74.3091 15.727 74.6042 15.5533C74.8993 15.3797 75.1576 15.1475 75.3789 14.8567L76.1081 15.4362C75.9562 15.6662 75.7631 15.8854 75.5287 16.0937C75.2943 16.302 75.0057 16.4713 74.6628 16.6015C74.3243 16.7317 73.9228 16.7968 73.4584 16.7968ZM72.6315 8.58069L73.8946 6.66663H75.3464L73.6016 8.58069H72.6315Z" fill="white"/>
<path d="M80.4245 15.8073C80.711 15.8073 80.9757 15.7487 81.2188 15.6315C81.4618 15.5143 81.6615 15.3537 81.8177 15.1497C81.974 14.9414 82.063 14.7048 82.0847 14.4401H83.2305C83.2088 14.8567 83.0677 15.2452 82.8073 15.6054C82.5513 15.9613 82.2149 16.25 81.7982 16.4713C81.3816 16.6883 80.9237 16.7968 80.4245 16.7968C79.895 16.7968 79.4328 16.7035 79.0378 16.5169C78.6472 16.3303 78.3217 16.0742 78.0612 15.7487C77.8052 15.4231 77.612 15.0499 77.4818 14.6289C77.3559 14.2035 77.293 13.7543 77.293 13.2812V13.0078C77.293 12.5347 77.3559 12.0876 77.4818 11.6666C77.612 11.2413 77.8052 10.8658 78.0612 10.5403C78.3217 10.2148 78.6472 9.95873 79.0378 9.77209C79.4328 9.58546 79.895 9.49215 80.4245 9.49215C80.9757 9.49215 81.4575 9.60499 81.8698 9.83069C82.2822 10.052 82.6055 10.3559 82.8399 10.7421C83.0786 11.1241 83.2088 11.5581 83.2305 12.0442H82.0847C82.063 11.7534 81.9805 11.4908 81.8373 11.2565C81.6984 11.0221 81.5074 10.8355 81.2644 10.6966C81.0256 10.5533 80.7457 10.4817 80.4245 10.4817C80.0556 10.4817 79.7453 10.5555 79.4935 10.7031C79.2461 10.8463 79.0487 11.0416 78.9011 11.289C78.7579 11.5321 78.6537 11.8033 78.5886 12.1028C78.5278 12.398 78.4974 12.6996 78.4974 13.0078V13.2812C78.4974 13.5894 78.5278 13.8932 78.5886 14.1927C78.6493 14.4921 78.7513 14.7634 78.8946 15.0065C79.0421 15.2495 79.2396 15.4448 79.487 15.5924C79.7388 15.7356 80.0513 15.8073 80.4245 15.8073Z" fill="white"/>
<path d="M85.7891 6.66663V16.6666H84.5847V6.66663H85.7891ZM85.5026 12.8776L85.0013 12.858C85.0057 12.3763 85.0773 11.9314 85.2162 11.5234C85.3551 11.1111 85.5504 10.753 85.8021 10.4492C86.0539 10.1454 86.3533 9.91098 86.7006 9.74605C87.0521 9.57678 87.4406 9.49215 87.8659 9.49215C88.2131 9.49215 88.5256 9.53989 88.8034 9.63538C89.0812 9.72652 89.3177 9.87409 89.5131 10.0781C89.7127 10.2821 89.8646 10.5468 89.9688 10.8724C90.073 11.1935 90.125 11.5863 90.125 12.0507V16.6666H88.9141V12.0377C88.9141 11.6688 88.8598 11.3737 88.7513 11.1523C88.6428 10.9266 88.4844 10.7638 88.2761 10.664C88.0677 10.5599 87.8117 10.5078 87.5079 10.5078C87.2084 10.5078 86.9349 10.5707 86.6875 10.6966C86.4445 10.8224 86.234 10.9961 86.056 11.2174C85.8824 11.4388 85.7457 11.6927 85.6459 11.9791C85.5504 12.2612 85.5026 12.5607 85.5026 12.8776Z" fill="white"/>
<path d="M96.0821 15.4622V11.8359C96.0821 11.5581 96.0257 11.3172 95.9128 11.1132C95.8043 10.9049 95.6394 10.7443 95.418 10.6315C95.1967 10.5186 94.9232 10.4622 94.5977 10.4622C94.2939 10.4622 94.027 10.5143 93.7969 10.6184C93.5712 10.7226 93.3933 10.8593 93.2631 11.0286C93.1372 11.1979 93.0743 11.3802 93.0743 11.5755H91.8698C91.8698 11.3237 91.9349 11.0742 92.0651 10.8268C92.1954 10.5794 92.382 10.3559 92.625 10.1562C92.8724 9.95222 93.1676 9.79163 93.5105 9.67444C93.8577 9.55291 94.244 9.49215 94.6693 9.49215C95.1815 9.49215 95.6329 9.57895 96.0235 9.75256C96.4184 9.92617 96.7266 10.1888 96.948 10.5403C97.1737 10.8875 97.2865 11.3237 97.2865 11.8489V15.1302C97.2865 15.3645 97.306 15.6141 97.3451 15.8789C97.3885 16.1436 97.4514 16.3715 97.5339 16.5625V16.6666H96.2774C96.2166 16.5277 96.1689 16.3433 96.1342 16.1132C96.0994 15.8789 96.0821 15.6619 96.0821 15.4622ZM96.2904 12.3958L96.3034 13.2421H95.086C94.7431 13.2421 94.4371 13.2704 94.168 13.3268C93.8989 13.3789 93.6732 13.4592 93.4909 13.5677C93.3086 13.6762 93.1697 13.8129 93.0743 13.9778C92.9788 14.1384 92.931 14.3272 92.931 14.5442C92.931 14.7656 92.9809 14.9674 93.0808 15.1497C93.1806 15.332 93.3303 15.4774 93.53 15.5859C93.734 15.6901 93.9836 15.7421 94.2787 15.7421C94.6476 15.7421 94.9731 15.664 95.2553 15.5078C95.5374 15.3515 95.7609 15.1605 95.9258 14.9349C96.0951 14.7092 96.1862 14.49 96.1993 14.2773L96.7136 14.8567C96.6832 15.039 96.6007 15.2408 96.4662 15.4622C96.3316 15.6836 96.1515 15.8962 95.9258 16.1002C95.7045 16.2999 95.4397 16.467 95.1316 16.6015C94.8277 16.7317 94.4849 16.7968 94.1029 16.7968C93.6255 16.7968 93.2066 16.7035 92.8464 16.5169C92.4905 16.3303 92.2127 16.0807 92.0131 15.7682C91.8178 15.4513 91.7201 15.0976 91.7201 14.707C91.7201 14.3294 91.7939 13.9974 91.9414 13.7109C92.089 13.4201 92.3017 13.1792 92.5795 12.9882C92.8572 12.7929 93.1914 12.6454 93.5821 12.5455C93.9727 12.4457 94.4089 12.3958 94.8907 12.3958H96.2904Z" fill="white"/>
<path d="M100.385 10.7291V16.6666H99.181V9.62236H100.353L100.385 10.7291ZM102.586 9.58329L102.579 10.7031C102.48 10.6814 102.384 10.6684 102.293 10.664C102.206 10.6553 102.106 10.651 101.994 10.651C101.716 10.651 101.471 10.6944 101.258 10.7812C101.045 10.868 100.865 10.9895 100.717 11.1458C100.57 11.302 100.453 11.4887 100.366 11.7057C100.283 11.9184 100.229 12.1527 100.203 12.4088L99.8646 12.6041C99.8646 12.1788 99.9059 11.7795 99.9883 11.4062C100.075 11.0329 100.208 10.7031 100.385 10.4166C100.563 10.1258 100.789 9.90013 101.063 9.73954C101.34 9.57461 101.67 9.49215 102.052 9.49215C102.139 9.49215 102.239 9.503 102.352 9.5247C102.464 9.54206 102.543 9.56159 102.586 9.58329Z" fill="white"/>
<path d="M108.133 9.62236H109.227V16.5169C109.227 17.1375 109.101 17.6671 108.849 18.1054C108.597 18.5438 108.246 18.8758 107.794 19.1015C107.347 19.3316 106.831 19.4466 106.245 19.4466C106.002 19.4466 105.715 19.4075 105.385 19.3294C105.06 19.2556 104.739 19.1276 104.422 18.9453C104.109 18.7673 103.847 18.5264 103.634 18.2226L104.266 17.5065C104.561 17.8624 104.869 18.1098 105.19 18.2487C105.516 18.3875 105.837 18.457 106.154 18.457C106.536 18.457 106.865 18.3854 107.143 18.2421C107.421 18.0989 107.636 17.8862 107.788 17.6041C107.944 17.3263 108.022 16.9835 108.022 16.5755V11.1718L108.133 9.62236ZM103.283 13.2226V13.0859C103.283 12.5477 103.346 12.0594 103.471 11.6211C103.602 11.1783 103.786 10.7986 104.025 10.4817C104.268 10.1649 104.561 9.92183 104.904 9.75256C105.247 9.57895 105.633 9.49215 106.063 9.49215C106.505 9.49215 106.892 9.57027 107.221 9.72652C107.556 9.87843 107.838 10.102 108.068 10.3971C108.302 10.6879 108.487 11.0395 108.621 11.4518C108.756 11.8641 108.849 12.3307 108.901 12.8515V13.4505C108.853 13.967 108.76 14.4314 108.621 14.8437C108.487 15.256 108.302 15.6076 108.068 15.8984C107.838 16.1892 107.556 16.4127 107.221 16.569C106.887 16.7209 106.497 16.7968 106.05 16.7968C105.629 16.7968 105.247 16.7079 104.904 16.5299C104.565 16.352 104.274 16.1024 104.031 15.7812C103.788 15.46 103.602 15.0824 103.471 14.6484C103.346 14.21 103.283 13.7348 103.283 13.2226ZM104.487 13.0859V13.2226C104.487 13.5742 104.522 13.904 104.591 14.2122C104.665 14.5204 104.776 14.7916 104.923 15.026C105.075 15.2604 105.268 15.4448 105.503 15.5794C105.737 15.7096 106.017 15.7747 106.342 15.7747C106.742 15.7747 107.072 15.6901 107.332 15.5208C107.592 15.3515 107.799 15.128 107.951 14.8502C108.107 14.5724 108.228 14.2708 108.315 13.9453V12.3763C108.267 12.1375 108.194 11.9075 108.094 11.6862C107.998 11.4605 107.872 11.2608 107.716 11.0872C107.564 10.9092 107.375 10.7682 107.15 10.664C106.924 10.5599 106.659 10.5078 106.356 10.5078C106.026 10.5078 105.741 10.5772 105.503 10.7161C105.268 10.8507 105.075 11.0373 104.923 11.276C104.776 11.5104 104.665 11.7838 104.591 12.0963C104.522 12.4045 104.487 12.7343 104.487 13.0859Z" fill="white"/>
<path d="M113.979 16.7968C113.489 16.7968 113.044 16.7144 112.645 16.5494C112.25 16.3802 111.909 16.1436 111.622 15.8398C111.34 15.536 111.123 15.1757 110.971 14.7591C110.819 14.3424 110.744 13.8867 110.744 13.3919V13.1184C110.744 12.5455 110.828 12.0355 110.997 11.5885C111.167 11.1371 111.397 10.7552 111.688 10.4427C111.978 10.1302 112.308 9.89362 112.677 9.73303C113.046 9.57244 113.428 9.49215 113.823 9.49215C114.326 9.49215 114.76 9.57895 115.125 9.75256C115.494 9.92617 115.796 10.1692 116.03 10.4817C116.264 10.7899 116.438 11.1545 116.551 11.5755C116.664 11.9921 116.72 12.4479 116.72 12.9427V13.483H111.46V12.5H115.516V12.4088C115.498 12.0963 115.433 11.7925 115.32 11.4974C115.212 11.2022 115.038 10.9592 114.8 10.7682C114.561 10.5772 114.235 10.4817 113.823 10.4817C113.55 10.4817 113.298 10.5403 113.068 10.6575C112.838 10.7704 112.64 10.9396 112.475 11.1653C112.31 11.391 112.182 11.6666 112.091 11.9921C112 12.3177 111.954 12.6931 111.954 13.1184V13.3919C111.954 13.7261 112 14.0408 112.091 14.3359C112.187 14.6267 112.323 14.8828 112.501 15.1041C112.684 15.3255 112.903 15.4991 113.159 15.625C113.419 15.7508 113.714 15.8138 114.044 15.8138C114.47 15.8138 114.83 15.727 115.125 15.5533C115.42 15.3797 115.678 15.1475 115.9 14.8567L116.629 15.4362C116.477 15.6662 116.284 15.8854 116.05 16.0937C115.815 16.302 115.527 16.4713 115.184 16.6015C114.845 16.7317 114.444 16.7968 113.979 16.7968Z" fill="white"/>
<path d="M119.331 10.7291V16.6666H118.126V9.62236H119.298L119.331 10.7291ZM121.531 9.58329L121.525 10.7031C121.425 10.6814 121.329 10.6684 121.238 10.664C121.152 10.6553 121.052 10.651 120.939 10.651C120.661 10.651 120.416 10.6944 120.203 10.7812C119.99 10.868 119.81 10.9895 119.663 11.1458C119.515 11.302 119.398 11.4887 119.311 11.7057C119.229 11.9184 119.175 12.1527 119.148 12.4088L118.81 12.6041C118.81 12.1788 118.851 11.7795 118.934 11.4062C119.02 11.0329 119.153 10.7031 119.331 10.4166C119.509 10.1258 119.734 9.90013 120.008 9.73954C120.286 9.57461 120.615 9.49215 120.997 9.49215C121.084 9.49215 121.184 9.503 121.297 9.5247C121.41 9.54206 121.488 9.56159 121.531 9.58329Z" fill="white"/>
<path d="M130.053 14.7981C130.053 14.6245 130.014 14.4639 129.936 14.3164C129.862 14.1645 129.708 14.0277 129.474 13.9062C129.244 13.7803 128.897 13.6718 128.432 13.5807C128.042 13.4982 127.688 13.4006 127.371 13.2877C127.059 13.1749 126.792 13.0382 126.57 12.8776C126.353 12.717 126.186 12.5282 126.069 12.3112C125.952 12.0941 125.893 11.8402 125.893 11.5494C125.893 11.2717 125.954 11.0091 126.076 10.7617C126.201 10.5143 126.377 10.2951 126.603 10.1041C126.833 9.91315 127.109 9.76341 127.43 9.65491C127.751 9.5464 128.109 9.49215 128.504 9.49215C129.068 9.49215 129.55 9.59197 129.949 9.79163C130.349 9.99128 130.655 10.2582 130.867 10.5924C131.08 10.9223 131.186 11.289 131.186 11.6927H129.982C129.982 11.4974 129.923 11.3086 129.806 11.1263C129.693 10.9396 129.526 10.7855 129.305 10.664C129.088 10.5425 128.821 10.4817 128.504 10.4817C128.17 10.4817 127.898 10.5338 127.69 10.638C127.486 10.7378 127.336 10.8658 127.241 11.0221C127.15 11.1783 127.104 11.3433 127.104 11.5169C127.104 11.6471 127.126 11.7643 127.169 11.8684C127.217 11.9683 127.3 12.0616 127.417 12.1484C127.534 12.2309 127.699 12.309 127.911 12.3828C128.124 12.4566 128.395 12.5303 128.725 12.6041C129.303 12.7343 129.778 12.8906 130.151 13.0729C130.524 13.2552 130.802 13.4787 130.984 13.7434C131.167 14.0082 131.258 14.3294 131.258 14.707C131.258 15.0151 131.193 15.2973 131.063 15.5533C130.937 15.8094 130.752 16.0308 130.509 16.2174C130.27 16.3997 129.984 16.5429 129.65 16.6471C129.32 16.7469 128.949 16.7968 128.536 16.7968C127.916 16.7968 127.391 16.6862 126.961 16.4648C126.531 16.2434 126.206 15.957 125.984 15.6054C125.763 15.2539 125.652 14.8828 125.652 14.4921H126.863C126.881 14.822 126.976 15.0846 127.15 15.2799C127.323 15.4709 127.536 15.6076 127.788 15.6901C128.04 15.7682 128.289 15.8073 128.536 15.8073C128.866 15.8073 129.142 15.7638 129.363 15.677C129.589 15.5902 129.76 15.4709 129.878 15.319C129.995 15.1671 130.053 14.9934 130.053 14.7981Z" fill="white"/>
<path d="M137.15 15.039V9.62236H138.361V16.6666H137.208L137.15 15.039ZM137.378 13.5546L137.879 13.5416C137.879 14.0104 137.829 14.4444 137.729 14.8437C137.634 15.2387 137.477 15.5816 137.26 15.8724C137.043 16.1632 136.759 16.391 136.408 16.5559C136.056 16.7165 135.629 16.7968 135.125 16.7968C134.782 16.7968 134.467 16.7469 134.181 16.6471C133.899 16.5473 133.656 16.3932 133.452 16.1849C133.248 15.9765 133.089 15.7053 132.977 15.3711C132.868 15.0369 132.814 14.6354 132.814 14.1666V9.62236H134.018V14.1796C134.018 14.4965 134.053 14.7591 134.122 14.9674C134.196 15.1714 134.294 15.3342 134.415 15.4557C134.541 15.5729 134.68 15.6553 134.832 15.7031C134.988 15.7508 135.149 15.7747 135.314 15.7747C135.826 15.7747 136.232 15.677 136.531 15.4817C136.831 15.2821 137.046 15.0152 137.176 14.6809C137.31 14.3424 137.378 13.967 137.378 13.5546Z" fill="white"/>
<path d="M141.401 10.7291V16.6666H140.197V9.62236H141.369L141.401 10.7291ZM143.602 9.58329L143.595 10.7031C143.495 10.6814 143.4 10.6684 143.309 10.664C143.222 10.6553 143.122 10.651 143.009 10.651C142.731 10.651 142.486 10.6944 142.273 10.7812C142.061 10.868 141.881 10.9895 141.733 11.1458C141.586 11.302 141.468 11.4887 141.382 11.7057C141.299 11.9184 141.245 12.1527 141.219 12.4088L140.88 12.6041C140.88 12.1788 140.921 11.7795 141.004 11.4062C141.091 11.0329 141.223 10.7031 141.401 10.4166C141.579 10.1258 141.805 9.90013 142.078 9.73954C142.356 9.57461 142.686 9.49215 143.068 9.49215C143.155 9.49215 143.254 9.503 143.367 9.5247C143.48 9.54206 143.558 9.56159 143.602 9.58329Z" fill="white"/>
</svg>
