<?xml version="1.0" encoding="utf-8"?>
<!-- Generator: Adobe Illustrator 26.3.1, SVG Export Plug-In . SVG Version: 6.00 Build 0)  -->
<svg version="1.1" id="Layer_1" xmlns="http://www.w3.org/2000/svg" xmlns:xlink="http://www.w3.org/1999/xlink" x="0px" y="0px"
	 viewBox="0 0 935 423" style="enable-background:new 0 0 935 423;" xml:space="preserve">
<style type="text/css">
	.st0{fill:#98A0C6;}
</style>
<path class="st0" d="M930.7,307c0.2,0.5,0,1.1-0.5,1.3l-8.2,3.6c-0.5,0.2-1.1,0-1.3-0.5l-3.6-8.2c-0.2-0.5,0-1.1,0.5-1.3
	c0.5-0.2,1.1,0,1.3,0.5l2.6,6c5.6-15.8,12.9-50.2,11-89.4c-1.9-41.2-13.9-87.5-48.2-123.3C844.2,53.8,803,37.2,762.5,37.4
	c-40.6,0.2-80.8,17.5-119,43.6C567,133.5,498.9,221.6,451.8,280.6C400.4,345,312.1,394.8,227.2,413.7
	c-84.8,18.9-166.6,7.2-204.6-52.2c-24.5-38.3-26.9-69-16.1-96.2c10.8-27.1,34.6-50.6,62.2-74.8C124,142,194.3,90.4,207.5,0.8l2,0.3
	C196.1,91.6,125.1,143.7,70.1,192c-27.6,24.2-51.1,47.5-61.6,74c-10.5,26.5-8.4,56.4,15.9,94.4c37.2,58.3,117.9,70.2,202.5,51.3
	c84.5-18.9,172.3-68.4,223.4-132.4c47.1-59,115.4-147.4,192.1-200c38.4-26.3,79-43.8,120.1-44c41.2-0.2,82.8,16.7,123.3,58.9
	c34.7,36.2,46.8,83.1,48.7,124.6c1.8,39.5-5.5,74.2-11.2,90.2l6.1-2.7C929.8,306.2,930.4,306.5,930.7,307z"/>
</svg>
