<svg width="167" height="50" viewBox="0 0 167 50" fill="none" xmlns="http://www.w3.org/2000/svg">
<path d="M160.494 49.3827H6.17284C2.71605 49.3827 0 46.6667 0 43.2099V6.17284C0 2.71605 2.71605 0 6.17284 0H160.494C163.951 0 166.667 2.71605 166.667 6.17284V43.2099C166.667 46.6667 163.951 49.3827 160.494 49.3827Z" fill="black"/>
<path d="M54.3321 16.6666H52.3529L52.3659 15.6445H54.3321C55.0092 15.6445 55.5734 15.5034 56.0248 15.2213C56.4762 14.9349 56.8147 14.5355 57.0404 14.0234C57.2704 13.5069 57.3855 12.9036 57.3855 12.2135V11.6341C57.3855 11.0915 57.3204 10.6098 57.1901 10.1888C57.0599 9.76341 56.869 9.40534 56.6172 9.11454C56.3655 8.8194 56.0573 8.59588 55.6927 8.44397C55.3325 8.29206 54.918 8.21611 54.4493 8.21611H52.3138V7.18746H54.4493C55.0699 7.18746 55.6363 7.29163 56.1485 7.49996C56.6606 7.70395 57.1012 8.00126 57.4701 8.39189C57.8434 8.77817 58.1298 9.24692 58.3295 9.79814C58.5291 10.345 58.6289 10.9613 58.6289 11.6471V12.2135C58.6289 12.8993 58.5291 13.5178 58.3295 14.069C58.1298 14.6158 57.8412 15.0824 57.4636 15.4687C57.0903 15.855 56.6389 16.1523 56.1094 16.3606C55.5842 16.5646 54.9918 16.6666 54.3321 16.6666ZM53.0235 7.18746V16.6666H51.767V7.18746H53.0235Z" fill="white"/>
<path d="M61.6433 9.62236V16.6666H60.4323V9.62236H61.6433ZM60.3412 7.75387C60.3412 7.55855 60.3998 7.39362 60.517 7.25907C60.6385 7.12453 60.8164 7.05725 61.0508 7.05725C61.2809 7.05725 61.4566 7.12453 61.5782 7.25907C61.704 7.39362 61.767 7.55855 61.767 7.75387C61.767 7.9405 61.704 8.10109 61.5782 8.23564C61.4566 8.36584 61.2809 8.43095 61.0508 8.43095C60.8164 8.43095 60.6385 8.36584 60.517 8.23564C60.3998 8.10109 60.3412 7.9405 60.3412 7.75387Z" fill="white"/>
<path d="M67.6784 14.7981C67.6784 14.6245 67.6394 14.4639 67.5612 14.3164C67.4875 14.1645 67.3334 14.0277 67.099 13.9062C66.869 13.7803 66.5217 13.6718 66.0573 13.5807C65.6667 13.4982 65.313 13.4006 64.9961 13.2877C64.6836 13.1749 64.4167 13.0382 64.1954 12.8776C63.9783 12.717 63.8112 12.5282 63.6941 12.3112C63.5769 12.0941 63.5183 11.8402 63.5183 11.5494C63.5183 11.2717 63.579 11.0091 63.7006 10.7617C63.8264 10.5143 64.0022 10.2951 64.2279 10.1041C64.4579 9.91315 64.7335 9.76341 65.0547 9.65491C65.3759 9.5464 65.734 9.49215 66.1289 9.49215C66.6932 9.49215 67.175 9.59197 67.5743 9.79163C67.9736 9.99128 68.2796 10.2582 68.4922 10.5924C68.7049 10.9223 68.8112 11.289 68.8112 11.6927H67.6068C67.6068 11.4974 67.5482 11.3086 67.431 11.1263C67.3182 10.9396 67.1511 10.7855 66.9297 10.664C66.7127 10.5425 66.4458 10.4817 66.1289 10.4817C65.7947 10.4817 65.5235 10.5338 65.3151 10.638C65.1112 10.7378 64.9614 10.8658 64.8659 11.0221C64.7748 11.1783 64.7292 11.3433 64.7292 11.5169C64.7292 11.6471 64.7509 11.7643 64.7943 11.8684C64.8421 11.9683 64.9245 12.0616 65.0417 12.1484C65.1589 12.2309 65.3238 12.309 65.5365 12.3828C65.7492 12.4566 66.0204 12.5303 66.3503 12.6041C66.9276 12.7343 67.4028 12.8906 67.7761 13.0729C68.1493 13.2552 68.4271 13.4787 68.6094 13.7434C68.7917 14.0082 68.8829 14.3294 68.8829 14.707C68.8829 15.0151 68.8178 15.2973 68.6875 15.5533C68.5617 15.8094 68.3772 16.0308 68.1342 16.2174C67.8954 16.3997 67.609 16.5429 67.2748 16.6471C66.9449 16.7469 66.5738 16.7968 66.1615 16.7968C65.5408 16.7968 65.0157 16.6862 64.586 16.4648C64.1563 16.2434 63.8308 15.957 63.6094 15.6054C63.3881 15.2539 63.2774 14.8828 63.2774 14.4921H64.4883C64.5057 14.822 64.6012 15.0846 64.7748 15.2799C64.9484 15.4709 65.1611 15.6076 65.4128 15.6901C65.6645 15.7682 65.9141 15.8073 66.1615 15.8073C66.4914 15.8073 66.767 15.7638 66.9883 15.677C67.214 15.5902 67.3855 15.4709 67.5026 15.319C67.6198 15.1671 67.6784 14.9934 67.6784 14.7981Z" fill="white"/>
<path d="M71.6693 10.9765V19.375H70.4584V9.62236H71.5651L71.6693 10.9765ZM76.4154 13.0859V13.2226C76.4154 13.7348 76.3546 14.21 76.2331 14.6484C76.1116 15.0824 75.9336 15.46 75.6993 15.7812C75.4692 16.1024 75.1849 16.352 74.8464 16.5299C74.5079 16.7079 74.1194 16.7968 73.681 16.7968C73.234 16.7968 72.839 16.723 72.4961 16.5755C72.1533 16.4279 71.8625 16.2131 71.6237 15.9309C71.385 15.6488 71.1941 15.3103 71.0508 14.9153C70.9119 14.5204 70.8164 14.0755 70.7644 13.5807V12.8515C70.8164 12.3307 70.9141 11.8641 71.0573 11.4518C71.2006 11.0395 71.3894 10.6879 71.6237 10.3971C71.8625 10.102 72.1511 9.87843 72.4896 9.72652C72.8282 9.57027 73.2188 9.49215 73.6615 9.49215C74.1042 9.49215 74.497 9.57895 74.8399 9.75256C75.1828 9.92183 75.4714 10.1649 75.7058 10.4817C75.9401 10.7986 76.1159 11.1783 76.2331 11.6211C76.3546 12.0594 76.4154 12.5477 76.4154 13.0859ZM75.2045 13.2226V13.0859C75.2045 12.7343 75.1676 12.4045 75.0938 12.0963C75.02 11.7838 74.905 11.5104 74.7487 11.276C74.5968 11.0373 74.4015 10.8507 74.1628 10.7161C73.9241 10.5772 73.6398 10.5078 73.3099 10.5078C73.0061 10.5078 72.7414 10.5599 72.5157 10.664C72.2943 10.7682 72.1055 10.9092 71.9493 11.0872C71.793 11.2608 71.665 11.4605 71.5651 11.6862C71.4697 11.9075 71.398 12.1375 71.3503 12.3763V14.0625C71.4371 14.3663 71.5586 14.6527 71.7149 14.9218C71.8711 15.1866 72.0795 15.4014 72.3399 15.5664C72.6003 15.727 72.928 15.8073 73.323 15.8073C73.6485 15.8073 73.9284 15.74 74.1628 15.6054C74.4015 15.4665 74.5968 15.2777 74.7487 15.039C74.905 14.8003 75.02 14.5269 75.0938 14.2187C75.1676 13.9062 75.2045 13.5742 75.2045 13.2226Z" fill="white"/>
<path d="M77.6329 13.2226V13.0729C77.6329 12.5651 77.7066 12.0941 77.8542 11.6601C78.0018 11.2217 78.2145 10.842 78.4922 10.5208C78.77 10.1953 79.1064 9.94354 79.5013 9.76558C79.8963 9.58329 80.339 9.49215 80.8295 9.49215C81.3243 9.49215 81.7691 9.58329 82.1641 9.76558C82.5634 9.94354 82.9019 10.1953 83.1797 10.5208C83.4618 10.842 83.6767 11.2217 83.8243 11.6601C83.9718 12.0941 84.0456 12.5651 84.0456 13.0729V13.2226C84.0456 13.7304 83.9718 14.2013 83.8243 14.6354C83.6767 15.0694 83.4618 15.4492 83.1797 15.7747C82.9019 16.0959 82.5656 16.3476 82.1706 16.5299C81.78 16.7079 81.3373 16.7968 80.8425 16.7968C80.3477 16.7968 79.9028 16.7079 79.5079 16.5299C79.1129 16.3476 78.7743 16.0959 78.4922 15.7747C78.2145 15.4492 78.0018 15.0694 77.8542 14.6354C77.7066 14.2013 77.6329 13.7304 77.6329 13.2226ZM78.8373 13.0729V13.2226C78.8373 13.5742 78.8785 13.9062 78.961 14.2187C79.0434 14.5269 79.1671 14.8003 79.3321 15.039C79.5013 15.2777 79.7118 15.4665 79.9636 15.6054C80.2153 15.74 80.5083 15.8073 80.8425 15.8073C81.1724 15.8073 81.461 15.74 81.7084 15.6054C81.9601 15.4665 82.1684 15.2777 82.3334 15.039C82.4983 14.8003 82.622 14.5269 82.7045 14.2187C82.7913 13.9062 82.8347 13.5742 82.8347 13.2226V13.0729C82.8347 12.7257 82.7913 12.398 82.7045 12.0898C82.622 11.7773 82.4961 11.5017 82.3269 11.263C82.1619 11.0199 81.9536 10.829 81.7019 10.6901C81.4545 10.5512 81.1637 10.4817 80.8295 10.4817C80.4996 10.4817 80.2088 10.5512 79.9571 10.6901C79.7097 10.829 79.5013 11.0199 79.3321 11.263C79.1671 11.5017 79.0434 11.7773 78.961 12.0898C78.8785 12.398 78.8373 12.7257 78.8373 13.0729Z" fill="white"/>
<path d="M86.7605 11.1263V16.6666H85.556V9.62236H86.6954L86.7605 11.1263ZM86.474 12.8776L85.9727 12.858C85.977 12.3763 86.0486 11.9314 86.1875 11.5234C86.3264 11.1111 86.5217 10.753 86.7735 10.4492C87.0252 10.1454 87.3247 9.91098 87.6719 9.74605C88.0235 9.57678 88.4119 9.49215 88.8373 9.49215C89.1845 9.49215 89.497 9.53989 89.7748 9.63538C90.0526 9.72652 90.2891 9.87409 90.4844 10.0781C90.6841 10.2821 90.836 10.5468 90.9401 10.8724C91.0443 11.1935 91.0964 11.5863 91.0964 12.0507V16.6666H89.8855V12.0377C89.8855 11.6688 89.8312 11.3737 89.7227 11.1523C89.6142 10.9266 89.4558 10.7638 89.2474 10.664C89.0391 10.5599 88.783 10.5078 88.4792 10.5078C88.1797 10.5078 87.9063 10.5707 87.6589 10.6966C87.4158 10.8224 87.2053 10.9961 87.0274 11.2174C86.8538 11.4388 86.7171 11.6927 86.6172 11.9791C86.5217 12.2612 86.474 12.5607 86.474 12.8776Z" fill="white"/>
<path d="M94.2344 9.62236V16.6666H93.0235V9.62236H94.2344ZM92.9323 7.75387C92.9323 7.55855 92.9909 7.39362 93.1081 7.25907C93.2296 7.12453 93.4076 7.05725 93.642 7.05725C93.872 7.05725 94.0478 7.12453 94.1693 7.25907C94.2952 7.39362 94.3581 7.55855 94.3581 7.75387C94.3581 7.9405 94.2952 8.10109 94.1693 8.23564C94.0478 8.36584 93.872 8.43095 93.642 8.43095C93.4076 8.43095 93.2296 8.36584 93.1081 8.23564C92.9909 8.10109 92.9323 7.9405 92.9323 7.75387Z" fill="white"/>
<path d="M96.1615 6.66663H97.3724V15.2994L97.2683 16.6666H96.1615V6.66663ZM102.132 13.0859V13.2226C102.132 13.7348 102.071 14.21 101.949 14.6484C101.828 15.0824 101.65 15.46 101.415 15.7812C101.181 16.1024 100.895 16.352 100.556 16.5299C100.217 16.7079 99.829 16.7968 99.3907 16.7968C98.9436 16.7968 98.5508 16.7209 98.2123 16.569C97.8781 16.4127 97.596 16.1892 97.3659 15.8984C97.1359 15.6076 96.9514 15.256 96.8125 14.8437C96.678 14.4314 96.5847 13.967 96.5326 13.4505V12.8515C96.5847 12.3307 96.678 11.8641 96.8125 11.4518C96.9514 11.0395 97.1359 10.6879 97.3659 10.3971C97.596 10.102 97.8781 9.87843 98.2123 9.72652C98.5465 9.57027 98.9349 9.49215 99.3776 9.49215C99.8204 9.49215 100.213 9.57895 100.556 9.75256C100.899 9.92183 101.185 10.1649 101.415 10.4817C101.65 10.7986 101.828 11.1783 101.949 11.6211C102.071 12.0594 102.132 12.5477 102.132 13.0859ZM100.921 13.2226V13.0859C100.921 12.7343 100.888 12.4045 100.823 12.0963C100.758 11.7838 100.654 11.5104 100.51 11.276C100.367 11.0373 100.178 10.8507 99.944 10.7161C99.7097 10.5772 99.421 10.5078 99.0782 10.5078C98.7743 10.5078 98.5096 10.5599 98.2839 10.664C98.0625 10.7682 97.8737 10.9092 97.7175 11.0872C97.5612 11.2608 97.4332 11.4605 97.3334 11.6862C97.2379 11.9075 97.1663 12.1375 97.1185 12.3763V13.9453C97.188 14.2491 97.3008 14.5421 97.4571 14.8242C97.6177 15.102 97.8303 15.3298 98.0951 15.5078C98.3642 15.6857 98.6962 15.7747 99.0912 15.7747C99.4167 15.7747 99.6945 15.7096 99.9245 15.5794C100.159 15.4448 100.348 15.2604 100.491 15.026C100.638 14.7916 100.747 14.5204 100.816 14.2122C100.886 13.904 100.921 13.5742 100.921 13.2226Z" fill="white"/>
<path d="M104.964 6.66663V16.6666H103.753V6.66663H104.964Z" fill="white"/>
<path d="M109.82 16.7968C109.33 16.7968 108.885 16.7144 108.486 16.5494C108.091 16.3802 107.75 16.1436 107.464 15.8398C107.181 15.536 106.964 15.1757 106.813 14.7591C106.661 14.3424 106.585 13.8867 106.585 13.3919V13.1184C106.585 12.5455 106.669 12.0355 106.839 11.5885C107.008 11.1371 107.238 10.7552 107.529 10.4427C107.819 10.1302 108.149 9.89362 108.518 9.73303C108.887 9.57244 109.269 9.49215 109.664 9.49215C110.168 9.49215 110.602 9.57895 110.966 9.75256C111.335 9.92617 111.637 10.1692 111.871 10.4817C112.106 10.7899 112.279 11.1545 112.392 11.5755C112.505 11.9921 112.561 12.4479 112.561 12.9427V13.483H107.301V12.5H111.357V12.4088C111.339 12.0963 111.274 11.7925 111.161 11.4974C111.053 11.2022 110.879 10.9592 110.641 10.7682C110.402 10.5772 110.076 10.4817 109.664 10.4817C109.391 10.4817 109.139 10.5403 108.909 10.6575C108.679 10.7704 108.481 10.9396 108.316 11.1653C108.152 11.391 108.023 11.6666 107.932 11.9921C107.841 12.3177 107.796 12.6931 107.796 13.1184V13.3919C107.796 13.7261 107.841 14.0408 107.932 14.3359C108.028 14.6267 108.165 14.8828 108.342 15.1041C108.525 15.3255 108.744 15.4991 109 15.625C109.26 15.7508 109.556 15.8138 109.885 15.8138C110.311 15.8138 110.671 15.727 110.966 15.5533C111.261 15.3797 111.52 15.1475 111.741 14.8567L112.47 15.4362C112.318 15.6662 112.125 15.8854 111.891 16.0937C111.656 16.302 111.368 16.4713 111.025 16.6015C110.686 16.7317 110.285 16.7968 109.82 16.7968Z" fill="white"/>
<path d="M121.376 14.7981C121.376 14.6245 121.337 14.4639 121.259 14.3164C121.185 14.1645 121.031 14.0277 120.797 13.9062C120.567 13.7803 120.22 13.6718 119.755 13.5807C119.365 13.4982 119.011 13.4006 118.694 13.2877C118.382 13.1749 118.115 13.0382 117.893 12.8776C117.676 12.717 117.509 12.5282 117.392 12.3112C117.275 12.0941 117.216 11.8402 117.216 11.5494C117.216 11.2717 117.277 11.0091 117.398 10.7617C117.524 10.5143 117.7 10.2951 117.926 10.1041C118.156 9.91315 118.431 9.76341 118.753 9.65491C119.074 9.5464 119.432 9.49215 119.827 9.49215C120.391 9.49215 120.873 9.59197 121.272 9.79163C121.671 9.99128 121.977 10.2582 122.19 10.5924C122.403 10.9223 122.509 11.289 122.509 11.6927H121.305C121.305 11.4974 121.246 11.3086 121.129 11.1263C121.016 10.9396 120.849 10.7855 120.628 10.664C120.411 10.5425 120.144 10.4817 119.827 10.4817C119.493 10.4817 119.221 10.5338 119.013 10.638C118.809 10.7378 118.659 10.8658 118.564 11.0221C118.473 11.1783 118.427 11.3433 118.427 11.5169C118.427 11.6471 118.449 11.7643 118.492 11.8684C118.54 11.9683 118.622 12.0616 118.74 12.1484C118.857 12.2309 119.022 12.309 119.234 12.3828C119.447 12.4566 119.718 12.5303 120.048 12.6041C120.625 12.7343 121.101 12.8906 121.474 13.0729C121.847 13.2552 122.125 13.4787 122.307 13.7434C122.49 14.0082 122.581 14.3294 122.581 14.707C122.581 15.0151 122.516 15.2973 122.385 15.5533C122.26 15.8094 122.075 16.0308 121.832 16.2174C121.593 16.3997 121.307 16.5429 120.973 16.6471C120.643 16.7469 120.272 16.7968 119.859 16.7968C119.239 16.7968 118.714 16.6862 118.284 16.4648C117.854 16.2434 117.529 15.957 117.307 15.6054C117.086 15.2539 116.975 14.8828 116.975 14.4921H118.186C118.204 14.822 118.299 15.0846 118.473 15.2799C118.646 15.4709 118.859 15.6076 119.111 15.6901C119.362 15.7682 119.612 15.8073 119.859 15.8073C120.189 15.8073 120.465 15.7638 120.686 15.677C120.912 15.5902 121.083 15.4709 121.201 15.319C121.318 15.1671 121.376 14.9934 121.376 14.7981Z" fill="white"/>
<path d="M128.473 15.039V9.62236H129.684V16.6666H128.531L128.473 15.039ZM128.701 13.5546L129.202 13.5416C129.202 14.0104 129.152 14.4444 129.052 14.8437C128.957 15.2387 128.8 15.5816 128.583 15.8724C128.366 16.1632 128.082 16.391 127.731 16.5559C127.379 16.7165 126.951 16.7968 126.448 16.7968C126.105 16.7968 125.79 16.7469 125.504 16.6471C125.222 16.5473 124.979 16.3932 124.775 16.1849C124.571 15.9765 124.412 15.7053 124.3 15.3711C124.191 15.0369 124.137 14.6354 124.137 14.1666V9.62236H125.341V14.1796C125.341 14.4965 125.376 14.7591 125.445 14.9674C125.519 15.1714 125.617 15.3342 125.738 15.4557C125.864 15.5729 126.003 15.6553 126.155 15.7031C126.311 15.7508 126.472 15.7747 126.637 15.7747C127.149 15.7747 127.555 15.677 127.854 15.4817C128.154 15.2821 128.369 15.0152 128.499 14.6809C128.633 14.3424 128.701 13.967 128.701 13.5546Z" fill="white"/>
<path d="M132.724 10.7291V16.6666H131.52V9.62236H132.691L132.724 10.7291ZM134.925 9.58329L134.918 10.7031C134.818 10.6814 134.723 10.6684 134.632 10.664C134.545 10.6553 134.445 10.651 134.332 10.651C134.054 10.651 133.809 10.6944 133.596 10.7812C133.384 10.868 133.204 10.9895 133.056 11.1458C132.908 11.302 132.791 11.4887 132.704 11.7057C132.622 11.9184 132.568 12.1527 132.542 12.4088L132.203 12.6041C132.203 12.1788 132.244 11.7795 132.327 11.4062C132.414 11.0329 132.546 10.7031 132.724 10.4166C132.902 10.1258 133.128 9.90013 133.401 9.73954C133.679 9.57461 134.009 9.49215 134.391 9.49215C134.477 9.49215 134.577 9.503 134.69 9.5247C134.803 9.54206 134.881 9.56159 134.925 9.58329Z" fill="white"/>
<path d="M160.494 0.987654C163.333 0.987654 165.679 3.33333 165.679 6.17284V43.2099C165.679 46.0494 163.333 48.3951 160.494 48.3951H6.17284C3.33333 48.3951 0.987654 46.0494 0.987654 43.2099V6.17284C0.987654 3.33333 3.33333 0.987654 6.17284 0.987654H160.494ZM160.494 0H6.17284C2.71605 0 0 2.83951 0 6.17284V43.2099C0 46.6667 2.71605 49.3827 6.17284 49.3827H160.494C163.951 49.3827 166.667 46.6667 166.667 43.2099V6.17284C166.667 2.83951 163.951 0 160.494 0Z" fill="#A6A6A6"/>
<path d="M84.0741 28.2469C81.1111 28.2469 78.7654 30.4692 78.7654 33.5556C78.7654 36.5185 81.1111 38.8642 84.0741 38.8642C87.037 38.8642 89.3827 36.642 89.3827 33.5556C89.3827 30.3457 87.037 28.2469 84.0741 28.2469ZM84.0741 36.642C82.4691 36.642 81.1111 35.284 81.1111 33.4321C81.1111 31.5803 82.4691 30.2222 84.0741 30.2222C85.679 30.2222 87.037 31.4568 87.037 33.4321C87.037 35.284 85.679 36.642 84.0741 36.642ZM72.5926 28.2469C69.6296 28.2469 67.2839 30.4692 67.2839 33.5556C67.2839 36.5185 69.6296 38.8642 72.5926 38.8642C75.5555 38.8642 77.9012 36.642 77.9012 33.5556C77.9012 30.3457 75.5555 28.2469 72.5926 28.2469ZM72.5926 36.642C70.9876 36.642 69.6296 35.284 69.6296 33.4321C69.6296 31.5803 70.9876 30.2222 72.5926 30.2222C74.1975 30.2222 75.5555 31.4568 75.5555 33.4321C75.5555 35.284 74.1975 36.642 72.5926 36.642ZM58.8889 29.8519V32.0741H64.1975C64.0741 33.3087 63.5802 34.2963 62.9629 34.9136C62.2222 35.6543 60.9876 36.5185 58.8889 36.5185C55.5555 36.5185 53.0864 33.9259 53.0864 30.5926C53.0864 27.2593 55.679 24.6667 58.8889 24.6667C60.6173 24.6667 61.9753 25.4074 62.9629 26.2716L64.5679 24.6667C63.2099 23.4321 61.4815 22.4445 59.0123 22.4445C54.5679 22.4445 50.7407 26.1482 50.7407 30.5926C50.7407 35.037 54.5679 38.7408 59.0123 38.7408C61.4815 38.7408 63.2099 38 64.6913 36.3951C66.1728 34.9136 66.6666 32.8148 66.6666 31.2099C66.6666 30.7161 66.6667 30.2222 66.5432 29.8519H58.8889ZM114.938 31.5803C114.444 30.3457 113.21 28.2469 110.494 28.2469C107.778 28.2469 105.556 30.3457 105.556 33.5556C105.556 36.5185 107.778 38.8642 110.741 38.8642C113.086 38.8642 114.568 37.3827 115.062 36.5185L113.333 35.284C112.716 36.1482 111.975 36.7654 110.741 36.7654C109.506 36.7654 108.765 36.2716 108.148 35.1605L115.185 32.1975L114.938 31.5803ZM107.778 33.3087C107.778 31.3333 109.383 30.2222 110.494 30.2222C111.358 30.2222 112.222 30.7161 112.469 31.3333L107.778 33.3087ZM101.975 38.3704H104.321V22.9383H101.975V38.3704ZM98.2716 29.358C97.6543 28.7408 96.6666 28.1235 95.4321 28.1235C92.8395 28.1235 90.3703 30.4691 90.3703 33.4321C90.3703 36.3951 92.716 38.6173 95.4321 38.6173C96.6666 38.6173 97.6543 38 98.1481 37.3827H98.2716V38.1235C98.2716 40.0988 97.1605 41.2099 95.4321 41.2099C94.0741 41.2099 93.0864 40.2222 92.8395 39.358L90.8642 40.2222C91.4815 41.5803 92.9629 43.3087 95.5555 43.3087C98.2716 43.3087 100.494 41.7037 100.494 37.8766V28.4938H98.2716V29.358ZM95.5555 36.642C93.9506 36.642 92.5926 35.284 92.5926 33.4321C92.5926 31.5803 93.9506 30.2222 95.5555 30.2222C97.1605 30.2222 98.395 31.5803 98.395 33.4321C98.395 35.284 97.1605 36.642 95.5555 36.642ZM125.679 22.9383H120.123V38.3704H122.469V32.5679H125.679C128.272 32.5679 130.741 30.7161 130.741 27.7531C130.741 24.7901 128.272 22.9383 125.679 22.9383ZM125.802 30.3457H122.469V25.0371H125.802C127.531 25.0371 128.519 26.5185 128.519 27.6296C128.395 28.9877 127.407 30.3457 125.802 30.3457ZM140 28.1235C138.272 28.1235 136.543 28.8642 135.926 30.4691L138.025 31.3333C138.519 30.4691 139.259 30.2222 140.123 30.2222C141.358 30.2222 142.469 30.963 142.593 32.1975V32.321C142.222 32.0741 141.235 31.7037 140.247 31.7037C138.025 31.7037 135.802 32.9383 135.802 35.1605C135.802 37.2593 137.654 38.6173 139.63 38.6173C141.235 38.6173 141.975 37.8766 142.593 37.1358H142.716V38.3704H144.938V32.4445C144.691 29.7284 142.593 28.1235 140 28.1235ZM139.753 36.642C139.012 36.642 137.901 36.2716 137.901 35.284C137.901 34.0494 139.259 33.679 140.37 33.679C141.358 33.679 141.852 33.9259 142.469 34.1729C142.222 35.6543 140.988 36.642 139.753 36.642ZM152.716 28.4938L150.123 35.1605H150L147.284 28.4938H144.815L148.889 37.8766L146.543 43.0617H148.889L155.185 28.4938H152.716ZM131.975 38.3704H134.321V22.9383H131.975V38.3704Z" fill="white"/>
<path d="M12.8395 9.25928C12.4692 9.62965 12.3457 10.2469 12.3457 10.9877V38.2716C12.3457 39.0124 12.5926 39.6296 12.963 40L13.0864 40.1235L28.3951 24.8148V24.5679L12.8395 9.25928Z" fill="url(#paint0_linear_7414_27359)"/>
<path d="M33.3333 30.0001L28.2716 24.9383V24.568L33.3333 19.5062L33.4568 19.6297L39.5062 23.0865C41.2346 24.0741 41.2346 25.6791 39.5062 26.6667L33.3333 30.0001Z" fill="url(#paint1_linear_7414_27359)"/>
<path d="M33.4568 29.8766L28.2716 24.6914L12.8395 40.1235C13.4568 40.7408 14.321 40.7408 15.4321 40.247L33.4568 29.8766Z" fill="url(#paint2_linear_7414_27359)"/>
<path d="M33.4568 19.5063L15.4321 9.25935C14.321 8.64207 13.4568 8.76552 12.8395 9.38281L28.2716 24.6914L33.4568 19.5063Z" fill="url(#paint3_linear_7414_27359)"/>
<path opacity="0.2" d="M33.3333 29.7532L15.4321 39.8766C14.4444 40.4939 13.5802 40.3705 12.9629 39.8766L12.8395 40.0001L12.9629 40.1235C13.5802 40.6174 14.4444 40.7408 15.4321 40.1235L33.3333 29.7532Z" fill="black"/>
<path opacity="0.12" d="M12.8395 39.8766C12.4692 39.5062 12.3457 38.8889 12.3457 38.1482V38.2717C12.3457 39.0124 12.5926 39.6297 12.963 40V39.8766H12.8395ZM39.5062 26.2963L33.3334 29.7531L33.4568 29.8766L39.5062 26.4198C40.3704 25.926 40.7408 25.3087 40.7408 24.6914C40.7408 25.3087 40.2469 25.8025 39.5062 26.2963Z" fill="black"/>
<path opacity="0.25" d="M15.4321 9.38275L39.5062 23.0865C40.2469 23.5803 40.7408 24.0741 40.7408 24.6914C40.7408 24.0741 40.3704 23.4568 39.5062 22.963L15.4321 9.2593C13.7037 8.27164 12.3457 9.01238 12.3457 10.9877V11.1111C12.3457 9.2593 13.7037 8.3951 15.4321 9.38275Z" fill="white"/>
<defs>
<linearGradient id="paint0_linear_7414_27359" x1="22.1397" y1="10.7531" x2="8.97894" y2="23.9131" gradientUnits="userSpaceOnUse">
<stop stop-color="#00A0FF"/>
<stop offset="0.007" stop-color="#00A1FF"/>
<stop offset="0.26" stop-color="#00BEFF"/>
<stop offset="0.512" stop-color="#00D2FF"/>
<stop offset="0.76" stop-color="#00DFFF"/>
<stop offset="1" stop-color="#00E3FF"/>
</linearGradient>
<linearGradient id="paint1_linear_7414_27359" x1="41.7704" y1="24.6926" x2="11.8975" y2="24.6926" gradientUnits="userSpaceOnUse">
<stop stop-color="#FFE000"/>
<stop offset="0.409" stop-color="#FFBD00"/>
<stop offset="0.775" stop-color="#FFA500"/>
<stop offset="1" stop-color="#FF9C00"/>
</linearGradient>
<linearGradient id="paint2_linear_7414_27359" x1="30.6506" y1="29.5969" x2="8.23498" y2="52.0125" gradientUnits="userSpaceOnUse">
<stop stop-color="#FF3A44"/>
<stop offset="1" stop-color="#C31162"/>
</linearGradient>
<linearGradient id="paint3_linear_7414_27359" x1="9.00861" y1="7.00312" x2="18.9841" y2="16.9786" gradientUnits="userSpaceOnUse">
<stop stop-color="#32A071"/>
<stop offset="0.069" stop-color="#2DA771"/>
<stop offset="0.476" stop-color="#15CF74"/>
<stop offset="0.801" stop-color="#06E775"/>
<stop offset="1" stop-color="#00F076"/>
</linearGradient>
</defs>
</svg>
