<svg width="16" height="14" viewBox="0 0 16 14" fill="none" xmlns="http://www.w3.org/2000/svg">
<path d="M1.6 0.26001V2.21001L0 4.34301V4.52601C0.00210276 4.94971 0.171349 5.35545 0.470953 5.65506C0.770556 5.95466 1.1763 6.12391 1.6 6.12601V13.06H10.133V8.26001H11.2V13.06H14.4V6.12701C14.8237 6.12491 15.2294 5.95566 15.529 5.65606C15.8287 5.35645 15.9979 4.95071 16 4.52701V4.34301L14.4 2.21001V0.26001H1.6ZM2.667 1.32701H13.333V1.86001H2.667V1.32701ZM2.4 2.92701H13.6L14.883 4.64401C14.8621 4.75806 14.8027 4.86152 14.7149 4.9372C14.627 5.01287 14.5159 5.05621 14.4 5.06001C14.33 5.06014 14.2606 5.04644 14.1959 5.01971C14.1311 4.99297 14.0723 4.95371 14.0228 4.90419C13.9733 4.85467 13.934 4.79586 13.9073 4.73114C13.8806 4.66641 13.8669 4.59704 13.867 4.52701H12.8C12.8 4.6685 12.7438 4.8042 12.6437 4.90425C12.5437 5.0043 12.408 5.06051 12.2665 5.06051C12.125 5.06051 11.9893 5.0043 11.8893 4.90425C11.7892 4.8042 11.733 4.6685 11.733 4.52701H10.667C10.667 4.6685 10.6108 4.8042 10.5107 4.90425C10.4107 5.0043 10.275 5.06051 10.1335 5.06051C9.99201 5.06051 9.85631 5.0043 9.75626 4.90425C9.65621 4.8042 9.6 4.6685 9.6 4.52701H8.533C8.533 4.6685 8.47679 4.8042 8.37674 4.90425C8.27669 5.0043 8.14099 5.06051 7.9995 5.06051C7.85801 5.06051 7.72231 5.0043 7.62226 4.90425C7.52221 4.8042 7.466 4.6685 7.466 4.52701H6.4C6.4 4.6685 6.34379 4.8042 6.24374 4.90425C6.14369 5.0043 6.00799 5.06051 5.8665 5.06051C5.72501 5.06051 5.58931 5.0043 5.48926 4.90425C5.38921 4.8042 5.333 4.6685 5.333 4.52701H4.267C4.267 4.6685 4.21079 4.8042 4.11074 4.90425C4.01069 5.0043 3.87499 5.06051 3.7335 5.06051C3.59201 5.06051 3.45631 5.0043 3.35626 4.90425C3.25621 4.8042 3.2 4.6685 3.2 4.52701H2.133C2.13313 4.59704 2.11944 4.66641 2.0927 4.73114C2.06596 4.79586 2.0267 4.85467 1.97718 4.90419C1.92766 4.95371 1.86885 4.99297 1.80413 5.01971C1.7394 5.04644 1.67003 5.06014 1.6 5.06001C1.48396 5.05616 1.37274 5.01268 1.28486 4.93681C1.19697 4.86094 1.13773 4.75725 1.117 4.64301L2.4 2.92701ZM2.667 5.71001C2.95763 5.97776 3.33833 6.1264 3.7335 6.1264C4.12867 6.1264 4.50937 5.97776 4.8 5.71001C5.09063 5.97776 5.47133 6.1264 5.8665 6.1264C6.26167 6.1264 6.64237 5.97776 6.933 5.71001C7.22363 5.97776 7.60433 6.1264 7.9995 6.1264C8.39467 6.1264 8.77537 5.97776 9.066 5.71001C9.35663 5.97776 9.73733 6.1264 10.1325 6.1264C10.5277 6.1264 10.9084 5.97776 11.199 5.71001C11.4896 5.97776 11.8703 6.1264 12.2655 6.1264C12.6607 6.1264 13.0414 5.97776 13.332 5.71001V11.993H12.267V7.19301H9.067V11.993H2.667V5.71001ZM3.734 7.19301V10.926H8V7.19301H3.734ZM4.8 8.26001H6.933V9.86001H4.8V8.26001Z" fill="#98A0C6"/>
</svg>
