<svg width="12" height="16" viewBox="0 0 12 16" fill="none" xmlns="http://www.w3.org/2000/svg">
<path d="M5.60208 0C4.11767 0.00422082 2.69531 0.572817 1.64566 1.5816C0.59602 2.59038 0.00439178 3.95737 0 5.384C0.0790754 6.38067 0.361943 7.35255 0.832404 8.244C1.34816 9.34486 1.92616 10.4178 2.56381 11.458C3.82282 13.544 5.09223 15.29 5.09223 15.29L5.60208 16L6.10777 15.29C6.10777 15.29 7.37718 13.544 8.63619 11.458C9.27384 10.4178 9.85184 9.34486 10.3676 8.244C10.8381 7.35255 11.1209 6.38067 11.2 5.384C11.1956 3.95806 10.6046 2.59167 9.55581 1.58301C8.50707 0.574337 7.08577 0.00527504 5.60208 0ZM5.60208 1.2C6.17437 1.19895 6.74124 1.3065 7.27018 1.51649C7.79911 1.72649 8.2797 2.03478 8.68437 2.4237C9.08904 2.81262 9.40983 3.2745 9.62832 3.78284C9.84682 4.29119 9.95873 4.83599 9.95763 5.386C9.8615 6.21125 9.61792 7.01436 9.23761 7.76C8.73145 8.82218 8.16669 9.85765 7.54575 10.862C6.56767 12.484 5.96001 13.34 5.6 13.862C5.23998 13.35 4.63233 12.492 3.65425 10.862C3.03331 9.85765 2.46855 8.82218 1.96239 7.76C1.58401 7.01336 1.34254 6.20957 1.24861 5.384C1.24778 4.83433 1.35983 4.2899 1.57832 3.78192C1.79681 3.27394 2.11746 2.81238 2.52188 2.4237C2.9263 2.03503 3.40655 1.72686 3.93511 1.51688C4.46366 1.30689 5.03014 1.19921 5.60208 1.2ZM5.60208 4.2C5.35513 4.2 5.11372 4.27038 4.90839 4.40224C4.70306 4.53409 4.54302 4.72151 4.44852 4.94078C4.35401 5.16005 4.32929 5.40133 4.37747 5.63411C4.42564 5.86689 4.54456 6.08071 4.71918 6.24853C4.8938 6.41635 5.11628 6.53064 5.35849 6.57694C5.60069 6.62324 5.85175 6.59948 6.0799 6.50866C6.30805 6.41783 6.50306 6.26402 6.64026 6.06668C6.77746 5.86935 6.85069 5.63734 6.85069 5.4C6.85261 5.24124 6.82174 5.08369 6.75986 4.93648C6.69797 4.78927 6.60631 4.65532 6.49017 4.54241C6.37403 4.42949 6.23574 4.33984 6.08329 4.27867C5.93085 4.21749 5.76728 4.18599 5.60208 4.186V4.2Z" fill="#DE8E00"/>
</svg>
