<svg id="tel" xmlns="http://www.w3.org/2000/svg" viewBox="0 0 120 120"><defs><style>.cls-1{fill:#f0f3fc;}.cls-2{fill:#97b9d6;}.cls-3{fill:#ffc3ba;}.cls-4{fill:#c2ddf1;}.cls-5{fill:#292d43;}</style></defs><rect class="cls-1" x="9" y="9" width="102" height="102" rx="16"/><path class="cls-2" d="M94.06,48.35a14,14,0,0,0-15.57,0,7.52,7.52,0,0,0-3.36,6c0,2.89,2,5.33,4.78,6.81v5.53l5.37-4c.32,0,.65.05,1,.05a13.2,13.2,0,0,0,7.78-2.37,7.52,7.52,0,0,0,3.36-6A7.52,7.52,0,0,0,94.06,48.35Z"/><path class="cls-3" d="M33,39a10.52,10.52,0,0,1,6.17,1.87,6,6,0,0,1,2.66,4.75c0,2.29-1.56,4.22-3.79,5.39v4.38l-4.25-3.19c-.26,0-.52,0-.79,0a10.46,10.46,0,0,1-6.17-1.88,5.56,5.56,0,0,1,0-9.49A10.52,10.52,0,0,1,33,39Zm0,1.26a9.33,9.33,0,0,0-5.43,1.63,4.31,4.31,0,0,0,0,7.45A9.26,9.26,0,0,0,33,51c.31,0,.62,0,.93-.05l.24,0,2.61,2V50.3l.37-.17c2.11-1,3.42-2.65,3.42-4.47a4.69,4.69,0,0,0-2.15-3.73A9.29,9.29,0,0,0,33,40.3Z"/><ellipse class="cls-4" cx="60" cy="92.2" rx="15.13" ry="2.08"/><path class="cls-5" d="M48.71,40.31a3.6,3.6,0,0,0-2.25.82l-.1,0,0,0-4.8,4.94.05,0a4.83,4.83,0,0,0-1.3,5.19s0,0,0,.05A48.39,48.39,0,0,0,51.4,68.89,50.83,50.83,0,0,0,68.84,80h0a5.52,5.52,0,0,0,5.33-1l4.85-4.85a3.45,3.45,0,0,0,0-4.76l-6.25-6.24,0-.1A3.51,3.51,0,0,0,68,63L64.9,66.1a24.65,24.65,0,0,1-6.29-4.32,19.58,19.58,0,0,1-4.28-6.24l3.08-3.08a3.28,3.28,0,0,0,0-4.7l0,0-.15-.14-6.14-6.34,0,0-.1,0A3.61,3.61,0,0,0,48.71,40.31Zm0,3.08a.53.53,0,0,1,.34.14l6.15,6.29.14.15a.29.29,0,0,1-.09.33L51.4,54.15l-.72.67.34,1A24.9,24.9,0,0,0,56.49,64l.34.29a30.86,30.86,0,0,0,7.78,5l1,.43,4.56-4.56c.27-.26.22-.26.48,0l6.3,6.29c.26.27.26.17,0,.43L72.2,76.67a2.22,2.22,0,0,1-2.35.43A47.45,47.45,0,0,1,53.56,66.73,45.66,45.66,0,0,1,43.14,50.4a2,2,0,0,1,.48-2l.1-.09,4.66-4.76A.53.53,0,0,1,48.71,43.39Z"/></svg>