<svg xmlns="http://www.w3.org/2000/svg" viewBox="0 0 120 120"><defs><style>.cls-1{fill:#ffc3ba;}.cls-2{fill:#ff7e85;}.cls-3{fill:#eef9fc;}.cls-4{fill:#fdf2ca;}.cls-5{fill:#db3d63;}.cls-6{fill:#f0f3fc;}</style></defs><g id="lock"><rect class="cls-1" x="9" y="9" width="102" height="102" rx="16"/><ellipse class="cls-2" cx="60" cy="92.2" rx="15.13" ry="2.08"/><path class="cls-3" d="M47.35,34.3a.22.22,0,0,0,0-.41,13.39,13.39,0,0,1-3.43-2.4,12.44,12.44,0,0,1-2.56-3.21.25.25,0,0,0-.45,0,12.66,12.66,0,0,1-2.56,3.21,13.56,13.56,0,0,1-3.43,2.4.22.22,0,0,0,0,.41,13.39,13.39,0,0,1,3.43,2.4,12.44,12.44,0,0,1,2.56,3.21.26.26,0,0,0,.45,0,12.66,12.66,0,0,1,2.56-3.21A13.39,13.39,0,0,1,47.35,34.3Z"/><path class="cls-4" d="M90.56,63.69a.13.13,0,0,0,0-.24,7.91,7.91,0,0,1-2-1.42A7.31,7.31,0,0,1,87,60.14a.14.14,0,0,0-.26,0A7.64,7.64,0,0,1,85.25,62a7.94,7.94,0,0,1-2,1.42.13.13,0,0,0,0,.24,7.94,7.94,0,0,1,2,1.42A7.41,7.41,0,0,1,86.76,67,.15.15,0,0,0,87,67a7.2,7.2,0,0,1,1.51-1.89A7.91,7.91,0,0,1,90.56,63.69Z"/><path class="cls-5" d="M60,40A11,11,0,0,0,49.06,50.94v4.69H44.38v25H75.62v-25H70.94V50.94A11,11,0,0,0,60,40Zm0,3.13a7.83,7.83,0,0,1,7.81,7.81v4.69H52.19V50.94A7.83,7.83,0,0,1,60,43.13ZM47.5,58.75h25V77.5h-25Z"/><path class="cls-6" d="M31.92,87.81c.06,0,.06-.1,0-.12a3.91,3.91,0,0,1-1-.71,3.59,3.59,0,0,1-.76-1A.08.08,0,0,0,30,86a3.59,3.59,0,0,1-.76,1,4.08,4.08,0,0,1-1,.71c-.06,0-.06.09,0,.12a3.83,3.83,0,0,1,1,.71,3.73,3.73,0,0,1,.76.94.07.07,0,0,0,.13,0,3.73,3.73,0,0,1,.76-.94A3.68,3.68,0,0,1,31.92,87.81Z"/></g></svg>