<svg xmlns="http://www.w3.org/2000/svg" viewBox="0 0 120 120"><defs><style>.cls-1{fill:#eef9fc;}.cls-2{fill:#c7ceec;}.cls-3{fill:#fbe297;}.cls-4{fill:#ffc3ba;}.cls-5{fill:#6e8dad;}</style></defs><g id="truck"><rect class="cls-1" x="9" y="9" width="102" height="102" rx="16"/><ellipse class="cls-2" cx="60" cy="92.2" rx="15.13" ry="2.08"/><path class="cls-3" d="M38.61,75.57,36.48,84.9,36,84.26,34.8,82.69,33.72,84l-.23.29-.3-.25-1-.84L31.91,83l.24-.29,1-1.17-1.79-.65-.72-.26.64-.41,6.59-4.14Zm-1.13,1.6-5.19,3.25,1.6.57.5.18-.35.42L33,82.87l.42.36,1.14-1.39.32-.36.28.38,1,1.3Z"/><circle class="cls-4" cx="81.88" cy="47.63" r="8"/><path class="cls-5" d="M35,43.13v3.12H64.69V69.69H55.07a6.19,6.19,0,0,0-12,0H41.25V61.88H38.12V72.81h4.94a6.19,6.19,0,0,0,12,0h13a6.19,6.19,0,0,0,12,0H85V60.07l-.1-.24-3.12-9.38-.34-1.07H67.81V43.13Zm1.56,6.25V52.5H50.62V49.38ZM67.81,52.5H79.19l2.69,8v9.18H80.07a6.19,6.19,0,0,0-12,0h-.25ZM38.12,55.63v3.12H47.5V55.63Zm10.94,12.5a3.13,3.13,0,1,1-3.12,3.12A3.1,3.1,0,0,1,49.06,68.13Zm25,0a3.13,3.13,0,1,1-3.12,3.12A3.1,3.1,0,0,1,74.06,68.13Z"/></g></svg>