<svg xmlns="http://www.w3.org/2000/svg" viewBox="0 0 120 120"><defs><style>.cls-1{fill:#fff7d7;}.cls-2{fill:#ffd46b;}.cls-3{fill:#e2e6f5;}.cls-4{fill:#ffc3ba;}.cls-5{fill:#db9c2a;}</style></defs><g id="shop"><rect class="cls-1" x="9" y="9" width="102" height="102" rx="16"/><ellipse class="cls-2" cx="60" cy="92.2" rx="15.13" ry="2.08"/><path class="cls-3" d="M34.25,61.34l-.46-.28c-.49-.27-11.74-6.88-11.74-14a6.57,6.57,0,0,1,12.2-3.38,6.57,6.57,0,0,1,12.2,3.38c0,7.07-11.25,13.68-11.73,14ZM28.62,42.42a4.7,4.7,0,0,0-4.69,4.69c0,5.26,8.25,10.74,10.32,12,2.08-1.3,10.33-6.78,10.33-12a4.7,4.7,0,0,0-9.39,0H33.32A4.7,4.7,0,0,0,28.62,42.42Z"/><path class="cls-4" d="M48.5,32.73A5.33,5.33,0,0,0,44,35.28a5.32,5.32,0,0,0-4.5-2.55A5.22,5.22,0,0,0,34.25,38c0,5.62,9,11,9.38,11.17l.37.23.38-.23c.37-.22,9.37-5.55,9.37-11.17A5.21,5.21,0,0,0,48.5,32.73Z"/><path class="cls-5" d="M41.25,41.56v5.72l-4.69,6.25v.53a4.72,4.72,0,0,0,4.69,4.69V79.06h25V65h3.13V79.06h9.37V58.75a4.72,4.72,0,0,0,4.69-4.69v-.53l-4.69-6.25V41.56Zm3.13,3.13H75.62v1.56H44.38Zm-.79,4.69H76.41l3.76,5a1.5,1.5,0,0,1-1.42,1.22,1.56,1.56,0,0,1-1.56-1.57H74.06a1.56,1.56,0,1,1-3.12,0H67.81a1.56,1.56,0,1,1-3.12,0H61.56a1.56,1.56,0,1,1-3.12,0H55.31a1.56,1.56,0,1,1-3.12,0H49.06a1.56,1.56,0,1,1-3.12,0H42.81a1.56,1.56,0,0,1-1.56,1.57,1.5,1.5,0,0,1-1.42-1.22Zm.79,8.15a4.6,4.6,0,0,0,6.24,0,4.63,4.63,0,0,0,6.26,0,4.6,4.6,0,0,0,6.24,0,4.63,4.63,0,0,0,6.26,0,4.6,4.6,0,0,0,6.24,0V75.94H72.5V61.88H63.12V75.94H44.38Zm3.12,4.35V72.81H60V61.88ZM50.62,65h6.26v4.69H50.62Z"/></g></svg>