<svg xmlns="http://www.w3.org/2000/svg" viewBox="0 0 120 120"><defs><style>.cls-1{fill:#fdf2ca;}.cls-2{fill:#f5ca62;}.cls-3{fill:#fafbfe;}.cls-4{fill:#de8e00;}.cls-5{fill:#c2ddf1;}</style></defs><g id="refund"><rect class="cls-1" x="9" y="9" width="102" height="102" rx="16"/><ellipse class="cls-2" cx="60" cy="92.2" rx="15.13" ry="2.08"/><path class="cls-3" d="M52,27.72l-8.63,2.55-6.53-6.19-.25,9-7.91,4.29,8.48,3,1.65,8.86L44.3,42.1l8.93,1.17-5.09-7.42Z"/><path class="cls-4" d="M60,39.48A20.84,20.84,0,1,0,80.83,60.31H76.67a16.74,16.74,0,1,1-3.91-10.67l-4.43,4.42h12.5V41.56l-5.14,5.15A20.71,20.71,0,0,0,60,39.48Zm-2.08,8.33V59.45l-5.64,5.64,2.94,3,6.86-6.86V47.81Z"/><path class="cls-5" d="M92,70.12l-1,.64L87.39,73l-3.73-2-1.06-.55.3,1.15,1,4.08-3,2.94-.85.82,1.2.09,4.2.27,1.86,3.78.53,1.07.44-1.1,1.56-3.91L94,79.06l1.18-.16-.92-.77L91,75.43l.71-4.14Zm-1.44,2.15L90,75.56l0,.3.23.19,2.56,2.13-3.29.48-.31,0L89,79l-1.23,3.09-1.48-3-.13-.28h-.31l-3.32-.23,2.38-2.32.22-.21-.07-.3-.82-3.23,3,1.56.26.13.27-.16Z"/></g></svg>